# xmcd CD database file
#
# Track frame offsets:
#	183
#	14493
#	26683
#	40968
#	59798
#	77143
#	91913
#
# Disc length: 1378 seconds
#
# Revision: 0
# Processed by: cddbd v1.5.1PL2 Copyright (c) Steve Scherf et al.
# Submitted via: CDex 1.51
#
DISCID=57056007
DTITLE=Mansana Salsa Band - Llevane
DYEAR=1993
DGENRE=Salsa
TTITLE0=Llevane
TTITLE1=El Merenguito
TTITLE2=Dike Samba
TTITLE3=Moliendo Café
TTITLE4=Dorian Song
TTITLE5=Cuentame
TTITLE6=Soulfinger
EXTD=YEAR: 1993
EXTT0=
EXTT1=
EXTT2=
EXTT3=
EXTT4=
EXTT5=
EXTT6=
PLAYORDER=
